<?xml version="1.0" standalone="no"?>
<!DOCTYPE svg PUBLIC "-//W3C//DTD SVG 20010904//EN"
 "http://www.w3.org/TR/2001/REC-SVG-20010904/DTD/svg10.dtd">
<svg version="1.0" xmlns="http://www.w3.org/2000/svg"
 width="608.000000pt" height="619.000000pt" viewBox="0 0 608.000000 619.000000"
 preserveAspectRatio="xMidYMid meet">

<g transform="translate(0.000000,619.000000) scale(0.100000,-0.100000)"
fill="#000000" stroke="none">
<path d="M2990 5140 c0 -6 25 -64 55 -127 50 -106 55 -122 55 -184 l0 -69 40
0 40 0 0 59 c0 57 3 65 75 177 41 65 75 121 75 126 0 4 -19 8 -42 8 -40 0 -45
-3 -67 -43 -13 -23 -35 -60 -49 -81 l-24 -39 -34 79 c-19 43 -38 81 -42 85
-14 13 -82 20 -82 9z"/>
<path d="M2613 5096 c-47 -21 -75 -71 -69 -121 6 -52 41 -82 103 -90 99 -12
114 -17 120 -32 9 -23 -32 -53 -71 -53 -17 1 -48 7 -69 15 -38 13 -39 13 -48
-13 -8 -23 -23 -31 -100 -55 -50 -16 -92 -27 -94 -25 -5 7 -25 71 -22 74 1 2
32 14 67 26 60 22 65 26 63 52 -1 16 -4 31 -7 33 -3 3 -38 -6 -80 -20 l-74
-25 -6 23 c-3 13 -8 30 -12 38 -4 11 15 21 78 42 46 15 84 29 86 30 6 5 -21
65 -29 65 -14 0 -223 -72 -232 -80 -4 -4 17 -78 48 -165 30 -87 55 -161 55
-164 0 -3 -6 3 -13 13 -13 18 -18 16 -96 -24 -45 -23 -83 -41 -85 -39 -2 2
-34 60 -71 129 -37 69 -69 127 -71 128 -4 6 -37 -7 -57 -22 -16 -12 -10 -26
72 -177 50 -90 94 -163 100 -162 5 1 58 29 118 61 59 32 166 79 236 103 116
40 128 46 124 66 -3 19 -1 20 20 12 13 -5 54 -9 90 -9 106 0 164 40 166 114 2
74 -34 102 -143 115 -33 4 -68 14 -76 23 -15 14 -14 18 6 38 18 18 30 21 64
17 22 -3 48 -8 57 -12 21 -8 46 52 29 69 -17 17 -141 18 -177 2z"/>
<path d="M3525 5068 c-2 -7 -25 -82 -50 -165 -25 -84 -48 -159 -51 -167 -4
-10 6 -18 32 -25 21 -6 41 -7 45 -3 3 4 12 29 19 55 13 47 14 49 44 43 113
-23 123 -21 166 22 35 34 40 46 40 84 0 74 -30 108 -125 140 -91 30 -114 33
-120 16z m143 -104 c45 -29 9 -114 -41 -98 -65 20 -68 23 -61 51 16 66 22 74
51 67 16 -3 38 -13 51 -20z"/>
<path d="M3855 4903 c-72 -38 -105 -94 -105 -178 0 -65 16 -100 64 -143 117
-103 307 -2 306 163 -1 64 -54 142 -113 164 -41 16 -117 13 -152 -6z m135 -70
c78 -45 60 -161 -32 -206 -33 -16 -40 -17 -71 -3 -42 17 -57 42 -57 94 0 64
58 131 113 132 11 0 32 -7 47 -17z"/>
<path d="M1733 4701 l-102 -78 112 -146 c62 -81 116 -147 120 -148 13 -2 206
144 206 156 0 6 -9 21 -20 34 l-19 24 -63 -48 c-34 -27 -67 -52 -73 -57 -7 -5
-21 4 -37 25 l-26 34 59 44 c33 24 59 49 60 55 0 6 -9 19 -20 29 -19 17 -21
17 -60 -10 -22 -15 -45 -34 -51 -41 -17 -21 -31 -17 -55 13 l-22 27 69 54 c38
29 69 56 69 60 -1 8 -36 52 -42 52 -1 0 -49 -35 -105 -79z"/>
<path d="M4214 4716 c-75 -33 -83 -94 -23 -186 41 -63 47 -102 18 -108 -24 -4
-75 43 -95 88 -20 44 -22 45 -59 28 -32 -15 -32 -34 4 -91 63 -99 168 -132
230 -73 24 23 31 38 31 69 0 43 -10 65 -51 118 -32 41 -37 76 -13 86 25 9 66
-21 90 -64 20 -38 21 -39 52 -26 18 7 32 19 32 27 0 27 -66 101 -110 124 -51
25 -63 26 -106 8z"/>
<path d="M1476 4472 c-55 -59 -102 -113 -104 -121 -3 -8 6 -22 19 -32 24 -18
24 -18 66 23 l41 40 107 -101 c59 -55 111 -101 115 -101 3 0 17 12 31 26 l24
26 -112 107 -112 107 41 42 42 41 -24 26 c-13 14 -26 25 -29 24 -3 0 -51 -48
-105 -107z"/>
<path d="M4474 4545 l-29 -24 39 -39 c21 -22 37 -45 35 -50 -2 -6 -49 -52
-104 -103 -55 -51 -101 -98 -103 -104 -1 -6 9 -22 23 -35 l25 -24 28 25 c15
14 65 60 111 104 l85 79 38 -44 c41 -46 57 -47 82 -8 10 17 5 25 -140 179
l-62 67 -28 -23z"/>
<path d="M1335 4268 c-59 -32 -115 -112 -115 -163 0 -66 63 -122 124 -111 17
3 56 26 86 51 30 25 63 45 73 45 48 0 19 -76 -46 -117 -23 -15 -44 -29 -47
-31 -2 -2 3 -17 13 -33 l17 -31 -103 6 c-56 4 -134 9 -174 12 l-72 6 -16 -33
-17 -32 145 -145 146 -146 17 37 18 37 -36 38 -35 37 26 55 26 55 47 -3 c46
-3 48 -2 65 34 14 29 15 38 5 42 -7 2 3 15 26 32 68 49 110 131 97 190 -8 39
-58 80 -96 80 -37 0 -61 -12 -121 -62 -51 -42 -81 -46 -86 -11 -4 30 21 66 62
88 l34 18 -16 34 c-17 37 -19 37 -47 21z m-35 -454 c0 -9 -34 -74 -40 -74 -3
0 -25 19 -48 43 l-41 42 64 -3 c36 -2 65 -5 65 -8z"/>
<path d="M4598 4177 c-87 -56 -158 -104 -158 -107 0 -3 11 -18 24 -35 l23 -29
49 32 49 32 17 -23 c23 -29 23 -28 -12 -98 l-31 -60 21 -35 c12 -19 25 -34 29
-34 4 0 22 31 40 69 l34 68 32 -10 c65 -20 155 54 155 127 0 21 -17 59 -50
111 -27 43 -53 82 -57 86 -5 4 -79 -38 -165 -94z m168 -47 c31 -46 27 -81 -11
-98 -33 -15 -48 -8 -79 38 l-26 39 43 30 c23 17 43 30 44 31 2 0 15 -18 29
-40z"/>
<path d="M3320 4043 c-28 -11 -445 -236 -765 -413 -176 -97 -435 -239 -575
-315 -140 -76 -258 -144 -262 -149 -4 -6 -8 -60 -8 -121 l0 -110 -50 -75 c-37
-55 -50 -84 -50 -111 0 -42 27 -82 71 -104 27 -14 29 -20 29 -72 0 -50 -5 -64
-50 -134 -27 -43 -50 -88 -50 -101 0 -35 33 -81 73 -103 l37 -20 0 -76 c0 -55
4 -80 15 -89 17 -14 -109 -30 1320 165 1163 159 1313 181 1332 197 8 7 13 36
13 84 l0 74 25 -6 c29 -7 55 10 55 37 0 11 -16 75 -35 143 -20 73 -35 147 -35
179 0 51 1 54 23 50 14 -3 29 3 41 15 17 20 16 25 -23 156 -38 123 -41 144
-41 247 0 108 -1 115 -35 183 -120 242 -393 421 -709 465 -80 11 -320 14 -346
4z m350 -97 c258 -42 453 -156 575 -336 27 -38 47 -71 44 -73 -5 -4 -2273
-316 -2276 -313 -2 2 1058 581 1260 689 l89 47 112 0 c61 0 149 -6 196 -14z
m650 -561 c0 -45 -4 -65 -12 -65 -7 0 -568 -77 -1246 -170 -678 -94 -1239
-170 -1247 -170 -12 0 -15 14 -15 60 0 33 1 60 3 60 1 1 565 79 1252 174 688
96 1253 174 1258 175 4 1 7 -28 7 -64z m28 -217 l18 -63 -85 -6 c-100 -7 -172
-32 -262 -91 -87 -56 -133 -75 -205 -83 -72 -8 -200 8 -304 37 -155 44 -269
23 -500 -92 -74 -37 -148 -70 -165 -74 -67 -17 -156 -6 -298 35 -180 53 -200
51 -482 -41 -246 -80 -289 -89 -334 -66 l-32 17 28 49 c15 28 35 60 44 72 15
20 105 33 1260 193 684 95 1256 173 1271 174 25 1 29 -4 46 -61z m-28 -218 c0
-43 -4 -60 -13 -60 -8 0 -569 -76 -1247 -170 -678 -93 -1239 -170 -1246 -170
-9 0 -14 12 -14 35 0 32 3 34 38 40 20 3 132 37 247 75 270 89 286 91 401 52
127 -44 177 -54 275 -53 106 0 163 18 320 100 183 96 270 110 418 71 233 -62
401 -46 554 52 91 58 164 86 225 87 l42 1 0 -60z m27 -192 c7 -24 14 -50 17
-58 5 -12 -3 -14 -47 -12 -96 6 -205 -32 -337 -117 -36 -24 -85 -45 -118 -52
-79 -16 -216 -6 -342 27 -87 22 -119 26 -185 21 -100 -7 -162 -28 -344 -120
l-144 -72 -81 1 c-64 0 -107 8 -206 38 -131 40 -205 46 -292 26 -24 -5 -131
-39 -238 -75 -203 -68 -276 -80 -315 -51 -19 14 -19 15 0 50 11 20 29 48 40
62 20 25 39 28 1270 199 688 95 1264 174 1280 174 28 1 32 -3 42 -41z m-27
-218 c0 -54 -2 -60 -22 -64 -13 -2 -540 -75 -1173 -161 -632 -87 -1184 -164
-1225 -171 -104 -18 -100 -19 -100 25 l0 40 58 10 c31 6 145 40 253 76 234 78
270 81 402 35 48 -17 123 -36 167 -42 126 -19 194 -3 375 86 237 117 285 125
452 80 82 -22 121 -27 233 -28 156 -1 200 10 302 76 100 65 175 95 246 97 l32
1 0 -60z"/>
<path d="M3416 3724 c-19 -18 -20 -28 -6 -55 12 -21 50 -25 68 -7 18 18 14 56
-7 68 -27 14 -37 13 -55 -6z"/>
<path d="M3672 3608 c-7 -7 -12 -21 -12 -33 0 -44 60 -63 80 -26 24 45 -33 94
-68 59z"/>
<path d="M3116 3554 c-17 -45 12 -82 54 -69 24 8 34 39 20 65 -13 25 -65 28
-74 4z"/>
<path d="M2745 3446 c-13 -19 -14 -29 -5 -45 20 -39 80 -21 80 24 0 47 -49 60
-75 21z"/>
<path d="M4776 3880 c-87 -38 -161 -71 -163 -74 -3 -2 19 -58 47 -124 41 -95
55 -119 68 -115 16 4 17 -4 14 -70 -7 -132 50 -210 140 -193 52 10 81 46 86
110 l4 53 40 -10 c36 -9 39 -12 33 -37 -7 -30 -4 -34 37 -44 23 -5 28 -3 34
18 l6 25 49 -19 c143 -57 330 -167 453 -267 100 -82 91 -78 115 -40 11 19 21
39 21 45 0 10 -190 124 -227 136 -13 4 -29 13 -35 20 -7 7 -95 59 -195 117
-140 80 -185 110 -194 132 -20 48 -64 77 -118 77 -33 0 -53 -5 -63 -17 -22
-25 -59 -113 -47 -113 15 0 10 -77 -6 -94 -46 -46 -83 70 -49 157 3 10 -4 16
-27 21 -18 3 -30 9 -26 12 3 3 -10 42 -29 86 -19 44 -34 82 -34 84 0 5 64 34
73 34 2 0 17 -30 32 -67 16 -38 29 -69 30 -71 2 -2 47 15 63 24 1 0 -11 32
-27 70 -16 38 -27 72 -25 75 2 4 18 12 35 18 l30 10 30 -65 c16 -36 29 -70 29
-74 0 -18 22 -22 51 -10 16 7 29 13 29 14 0 18 -102 232 -112 233 -7 1 -84
-29 -172 -67z"/>
<path d="M1022 3623 c-19 -9 -41 -30 -49 -47 -12 -24 -59 -57 -219 -151 -112
-66 -228 -133 -256 -149 -29 -16 -95 -53 -145 -83 l-93 -54 14 -27 c37 -70 35
-70 116 -1 107 89 250 181 382 243 134 64 160 73 152 53 -4 -11 35 -24 178
-60 101 -25 186 -43 189 -39 4 4 10 21 14 39 7 34 10 31 -72 53 -41 10 -41 11
-32 43 24 83 3 154 -55 181 -43 20 -82 20 -124 -1z m108 -155 c-1 -33 -15 -39
-66 -27 l-48 12 39 13 c53 16 75 17 75 2z"/>
<path d="M3733 2090 c-28 -11 -40 -55 -55 -200 -10 -103 -9 -133 11 -296 l23
-182 -23 -48 c-12 -27 -34 -79 -49 -115 -29 -72 -75 -139 -95 -139 -17 0 -24
21 -32 90 -5 53 -4 58 21 77 14 11 42 44 61 73 28 41 35 62 35 100 0 58 -17
75 -76 75 -31 0 -49 -6 -67 -23 -30 -28 -62 -100 -72 -161 -8 -50 -140 -273
-176 -299 -22 -15 -22 -15 -15 22 4 21 18 70 32 109 13 40 24 82 24 94 0 28
-30 44 -75 41 -45 -3 -51 5 -32 44 28 58 -21 80 -70 32 -22 -22 -25 -31 -19
-71 7 -51 3 -56 -118 -182 -43 -45 -62 -59 -64 -47 -5 26 27 127 59 184 32 57
31 85 -2 103 -15 7 -28 6 -51 -5 -17 -9 -32 -15 -33 -14 0 2 -5 16 -11 33 -5
16 -21 36 -36 44 -23 13 -30 13 -67 -4 -53 -24 -96 -73 -133 -151 -66 -141
-16 -246 85 -176 22 14 57 46 79 72 22 25 37 36 33 25 -5 -11 -10 -47 -12 -80
-4 -51 -2 -64 17 -87 33 -43 68 -37 132 21 29 27 76 83 103 125 45 68 53 75
83 76 17 0 32 -1 32 -3 0 -2 -12 -37 -26 -78 -33 -97 -35 -149 -8 -186 12 -15
32 -29 46 -31 36 -4 120 81 178 181 l45 77 6 -44 c9 -60 22 -81 63 -100 84
-40 122 -9 190 154 25 60 46 114 46 120 0 5 5 10 10 10 6 0 10 -9 10 -21 0
-32 30 -129 55 -179 52 -104 132 -124 187 -49 27 36 55 172 68 323 10 123 5
166 -19 166 -5 0 -12 -39 -15 -87 -17 -216 -50 -363 -81 -363 -20 0 -41 32
-69 100 -46 115 -52 173 -32 323 9 73 22 158 28 189 14 75 5 232 -15 281 -12
26 -27 42 -51 52 -20 8 -37 15 -38 14 -2 0 -13 -4 -25 -9z m61 -85 c3 -13 5
-114 4 -222 -2 -196 -2 -197 -15 -123 -16 95 -28 309 -19 344 8 33 22 34 30 1z
m-222 -562 c1 -16 -5 -40 -12 -53 -13 -25 -50 -76 -50 -69 0 21 21 120 30 143
13 35 31 24 32 -21z m-742 -109 c0 -43 -4 -50 -67 -116 -47 -48 -69 -65 -71
-54 -4 17 70 169 96 199 27 31 42 21 42 -29z m607 -136 c-3 -8 -6 -5 -6 6 -1
11 2 17 5 13 3 -3 4 -12 1 -19z"/>
<path d="M2464 1838 c-93 -98 -185 -203 -280 -322 -180 -225 -182 -228 -164
-282 14 -41 35 -43 58 -6 9 16 49 70 87 121 69 91 70 91 73 59 22 -246 92
-433 168 -452 51 -13 165 39 172 78 3 16 0 18 -19 12 -66 -18 -75 -18 -106 8
-38 32 -119 229 -153 372 l-7 31 57 6 c72 8 268 81 384 144 97 52 123 86 111
144 -10 42 -23 45 -57 10 -17 -18 -59 -47 -93 -66 -65 -37 -281 -128 -328
-139 l-28 -7 35 47 c19 25 78 91 131 146 52 55 95 107 95 117 0 21 -30 51 -52
51 -8 0 -46 -33 -84 -72z"/>
</g>
</svg>
